<svg class="typst-doc" viewBox="0 0 176.42037480314963 146.74712598425197" width="176.42037480314963pt" height="146.74712598425197pt" xmlns="http://www.w3.org/2000/svg" xmlns:xlink="http://www.w3.org/1999/xlink" xmlns:h5="http://www.w3.org/1999/xhtml">
    <path class="typst-shape" fill="#ffffff" fill-rule="nonzero" d="M 0 0v 146.74713 h 176.42038 v -146.74713 Z "/>
    <g>
        <g class="typst-group" transform="matrix(1 0 0 1 8 8)">
            <g>
                <path class="typst-shape" fill="none" transform="matrix(1 0 0 1 0 58.82110236220471)" d="M 0 0h 26.3508 v 24.23 h -26.3508 v -24.23 Z "/>
                <g class="typst-group">
                    <g>
                        <g class="typst-group" transform="matrix(1 0 0 1 -0.000000047244094368909106 58.82110229921258)">
                            <g>
                                <g class="typst-text" transform="matrix(1 0 0 -1 7 14.513)">
                                    <use xlink:href="#g7325E2F83857234D174A6E3F24994277" x="0" y="0" fill="#000000" fill-rule="nonzero"/>
                                </g>
                                <g class="typst-text" transform="matrix(1 0 0 -1 12.312999999999999 17.23)">
                                    <use xlink:href="#g216B080A98F7873E1EB33D7C7CBCCE3E" x="0" y="0" fill="#000000" fill-rule="nonzero"/>
                                    <use xlink:href="#g3D0AA9D3B234F6EBDE2064FF8830AEA5" x="2.1406" y="0" fill="#000000" fill-rule="nonzero"/>
                                </g>
                            </g>
                        </g>
                    </g>
                </g>
                <path class="typst-shape" fill="none" stroke="#000000" stroke-width="0.6" stroke-linecap="butt" stroke-linejoin="miter" stroke-miterlimit="4" transform="matrix(1 0 0 1 41.3744220472441 85.95972440944882)" d="M 0 0m 0 27.496063 v -27.496063 "/>
                <path class="typst-shape" fill="none" stroke="#000000" stroke-width="0.6" stroke-linecap="butt" stroke-linejoin="miter" stroke-miterlimit="4" transform="matrix(1 0 0 1 41.3744220472441 28.416417322834636)" d="M 0 0m 0 27.496063 v -27.496063 "/>
                <path class="typst-shape" fill="none" transform="matrix(1 0 0 1 72.58760708661418 0)" d="M 0 0h 22.613 v 21.755 h -22.613 v -21.755 Z "/>
                <g class="typst-group">
                    <g>
                        <g class="typst-group" transform="matrix(1 0 0 1 72.58760707086614 -0.00000006299213656727554)">
                            <g>
                                <g class="typst-text" transform="matrix(1 0 0 -1 7 14.513)">
                                    <use xlink:href="#gC1EC7BC47190E272B690099BC6880AAC" x="0" y="0" fill="#000000" fill-rule="nonzero"/>
                                </g>
                            </g>
                        </g>
                    </g>
                </g>
                <path class="typst-shape" fill="none" stroke="#000000" stroke-width="0.6" stroke-linecap="butt" stroke-linejoin="miter" stroke-miterlimit="4" transform="matrix(1 0 0 1 41.3744220472441 28.416417322834636)" d="M 0 0h 22.535433 "/>
                <path class="typst-shape" fill="none" stroke="#000000" stroke-width="0.6" stroke-linecap="butt" stroke-linejoin="miter" stroke-miterlimit="4" transform="matrix(1 0 0 1 103.87835905511811 28.416417322834636)" d="M 0 0h 22.535433 "/>
                <path class="typst-shape" fill="none" transform="matrix(1 0 0 1 137.7523748031496 60.05860236220471)" d="M 0 0h 22.668 v 21.755 h -22.668 v -21.755 Z "/>
                <g class="typst-group">
                    <g>
                        <g class="typst-group" transform="matrix(1 0 0 1 137.75237475590552 60.05860229921259)">
                            <g>
                                <g class="typst-text" transform="matrix(1 0 0 -1 7 14.513)">
                                    <use xlink:href="#gE9BC32A68CDF4ADEE1DE1420C19D1A5B" x="0" y="0" fill="#000000" fill-rule="nonzero"/>
                                </g>
                            </g>
                        </g>
                    </g>
                </g>
                <path class="typst-shape" fill="none" stroke="#000000" stroke-width="0.6" stroke-linecap="butt" stroke-linejoin="miter" stroke-miterlimit="4" transform="matrix(1 0 0 1 126.41379212598427 28.416417322834636)" d="M 0 0v 38.97638 "/>
                <path class="typst-shape" fill="none" stroke="#000000" stroke-width="0.6" stroke-linecap="butt" stroke-linejoin="miter" stroke-miterlimit="4" transform="matrix(1 0 0 1 126.41379212598427 74.47940944881888)" d="M 0 0v 38.97638 "/>
                <path class="typst-shape" fill="none" stroke="#000000" stroke-width="0.6" stroke-linecap="butt" stroke-linejoin="miter" stroke-miterlimit="4" transform="matrix(1 0 0 1 41.3744220472441 113.4557874015748)" d="M 0 0m 85.03937 0 h -85.03937 "/>
                <path class="typst-shape" fill="none" transform="matrix(1 0 0 1 110.88604212598428 2.4009299212598445)" d="M 0 0h 31.0555 v 24.3147 h -31.0555 v -24.3147 Z "/>
                <g class="typst-group">
                    <g>
                        <g class="typst-group" transform="matrix(1 0 0 1 110.8860420944882 2.4009298267716472)">
                            <g>
                                <g class="typst-text" transform="matrix(1 0 0 -1 7 14.513)">
                                    <use xlink:href="#g7325E2F83857234D174A6E3F24994277" x="0" y="0" fill="#000000" fill-rule="nonzero"/>
                                </g>
                                <g class="typst-text" transform="matrix(1 0 0 -1 12.312999999999999 17.23)">
                                    <use xlink:href="#gF8987D3470093431E1D6105613734851" x="0" y="0" fill="#000000" fill-rule="nonzero"/>
                                    <use xlink:href="#g7A1C9F312B2F3CB891F09042468EF0A3" x="3.85" y="0" fill="#000000" fill-rule="nonzero"/>
                                    <use xlink:href="#gA291CEF2EB940EBAFE60683AA0004CEE" x="8.1312" y="0" fill="#000000" fill-rule="nonzero"/>
                                </g>
                            </g>
                        </g>
                    </g>
                </g>
                <path class="typst-shape" fill="none" stroke="#000000" stroke-width="0.8" stroke-linecap="butt" stroke-linejoin="miter" stroke-miterlimit="4" transform="matrix(1 0 0 1 26.350800000000003 55.91248031496061)" d="M 0 0m 0 15.0236225 c 0 8.289793 6.7338276 15.0236225 15.0236225 15.0236225 c 8.289793 0 15.0236225 -6.7338295 15.0236225 -15.0236225 c 0 -8.289795 -6.7338295 -15.0236225 -15.0236225 -15.0236225 c -8.289795 0 -15.0236225 6.7338276 -15.0236225 15.0236225 Z "/>
                <path class="typst-shape" fill="none" stroke="#000000" stroke-width="0.8" stroke-linecap="butt" stroke-linejoin="miter" stroke-miterlimit="4" transform="matrix(1 0 0 1 41.3744220472441 55.91248031496061)" d="M 0 0m 0 30.047245 v -30.047245 "/>
                <path class="typst-shape" fill="none" stroke="#000000" stroke-width="0.8" stroke-linecap="butt" stroke-linejoin="miter" stroke-miterlimit="4" transform="matrix(1 0 0 1 63.90985511811024 21.754999999999995)" d="M 0 0v 13.322835 h 39.968502 v -13.322835 h -39.968502 Z "/>
                <path class="typst-shape" fill="none" stroke="#000000" stroke-width="0.8" stroke-linecap="butt" stroke-linejoin="miter" stroke-miterlimit="4" transform="matrix(1 0 0 1 115.07520944881891 67.39279527559054)" d="M 0 0m 22.677166 0 h -22.677166 "/>
                <path class="typst-shape" fill="none" stroke="#000000" stroke-width="0.8" stroke-linecap="butt" stroke-linejoin="miter" stroke-miterlimit="4" transform="matrix(1 0 0 1 115.07520944881891 74.47940944881888)" d="M 0 0h 22.677166 "/>
                <path class="typst-shape" fill="#000000" fill-rule="nonzero" stroke="#000000" stroke-width="0.65" stroke-linecap="butt" stroke-linejoin="miter" stroke-miterlimit="4" transform="matrix(1 0 0 1 124.71300472440946 26.71562992125983)" d="M 0 0m 1.7007874 0 c -0.9384673 0 -1.7007874 0.7623201 -1.7007874 1.7007874 c 0 0.93846714 0.7623201 1.7007874 1.7007874 1.7007874 c 0.93846714 0 1.7007874 -0.7623203 1.7007874 -1.7007874 c 0 -0.9384673 -0.7623203 -1.7007874 -1.7007874 -1.7007874 Z "/>
                <path class="typst-shape" fill="none" stroke="#000000" stroke-width="0.6" stroke-linecap="butt" stroke-linejoin="miter" stroke-miterlimit="4" transform="matrix(1 0 0 1 83.89410708661418 113.4557874015748)" d="M 0 0v 7.937008 "/>
                <path class="typst-shape" fill="none" stroke="#000000" stroke-width="0.8" stroke-linecap="butt" stroke-linejoin="miter" stroke-miterlimit="4" transform="matrix(1 0 0 1 78.49338173387973 121.39279527559056)" d="M 0 0m 5.4007254 9.354331 l 5.4007254 -9.354331 h -10.801451 l 5.4007254 9.354331 Z "/>
            </g>
        </g>
    </g>
    <defs id="glyph">
        <symbol id="g7325E2F83857234D174A6E3F24994277" overflow="visible">
            <path d="M 0 0m 7.381 7.48 c -0.20900011 0 -0.86899996 0.032999992 -1.0780001 0.032999992 c -0.16499996 0 -0.25299978 -0.08799982 -0.25299978 -0.25300026 c 0 -0.10999966 0.076999664 -0.16499996 0.21999979 -0.17599964 c 0.3080001 -0.011000156 0.4619999 -0.12100029 0.4619999 -0.3080001 c 0 -0.09899998 -0.05499983 -0.23099995 -0.1539998 -0.3959999 l -3.278 -5.203 l -0.7260001 5.632 c 0 0.1869998 0.23100019 0.2750001 0.704 0.2750001 c 0.22000003 0 0.319 0.076999664 0.319 0.26399994 c 0 0.11000013 -0.065999985 0.16499996 -0.19799995 0.16499996 c -0.24199986 0 -1.0999999 -0.032999992 -1.342 -0.032999992 c -0.21999991 0 -0.96799994 0.032999992 -1.188 0.032999992 c -0.16500002 0 -0.25300002 -0.08799982 -0.25300002 -0.25300026 c 0 -0.12099981 0.110000014 -0.17599964 0.319 -0.17599964 c 0.18699998 0 0.31899995 -0.022000313 0.407 -0.04400015 c 0.176 -0.05499983 0.16499996 -0.07700014 0.19799995 -0.28599977 l 0.85800004 -6.71 c 0.032999992 -0.187 0.12100005 -0.286 0.26399994 -0.286 c 0.14300013 0 0.25300002 0.07700001 0.34100008 0.22 l 3.9160001 6.226 c 0.25299978 0.3959999 0.4949999 0.64900017 0.737 0.74800014 c 0.16499996 0.076999664 0.3739996 0.12099981 0.6160002 0.13199997 c 0.120999336 0.01099968 0.17599964 0.08799982 0.18699932 0.25299978 c 0.011000633 0.12100029 -0.05499935 0.17600012 -0.18699932 0.17600012 c -0.16499996 0 -0.7260003 -0.032999992 -0.8910003 -0.032999992 Z "/>
        </symbol>
        <symbol id="g216B080A98F7873E1EB33D7C7CBCCE3E" overflow="visible">
            <path d="M 0 0m 1.4938 4.6277 c 0 0.23099995 -0.1925 0.43120003 -0.42350006 0.43120003 c -0.231 0 -0.43119997 -0.20020008 -0.43119997 -0.43120003 c 0 -0.23099995 0.1925 -0.4389 0.4235 -0.4389 c 0.23870003 0 0.43120003 0.20020008 0.43120003 0.4389 Z m -0.39270008 -4.6046 l 0.80079997 -0.0231 v 0.3003 c -0.25409997 0 -0.4080999 0.0153999925 -0.45429993 0.046200007 c -0.046200037 0.030799985 -0.06159997 0.1155 -0.06159997 0.2541 v 2.8259 l -1.1011 -0.092400074 v -0.29259992 c 0.25409997 0 0.41579998 -0.023100138 0.46969998 -0.06160021 c 0.053900003 -0.038499832 0.07700002 -0.14629984 0.07700002 -0.32339978 v -2.0482001 c 0 -0.14629996 -0.023100019 -0.23869997 -0.07700002 -0.26949996 c -0.053900003 -0.030800015 -0.22329998 -0.03850001 -0.50049996 -0.03850001 v -0.3003 Z "/>
        </symbol>
        <symbol id="g3D0AA9D3B234F6EBDE2064FF8830AEA5" overflow="visible">
            <path d="M 0 0m 2.4178 3.1801 c 0.34649992 0 0.5236001 -0.26950002 0.5236001 -0.8162 v -1.7556 c 0 -0.14629996 -0.023100138 -0.23869997 -0.07700014 -0.26949996 c -0.053900003 -0.030800015 -0.22329998 -0.046200007 -0.50819993 -0.046200007 v -0.2926 l 0.88549995 0.0231 l 0.8778002 -0.0231 v 0.2926 c -0.24640012 0 -0.40810013 0.0076999962 -0.48510027 0.030799985 c -0.0769999 0.023100019 -0.10780001 0.07699999 -0.10780001 0.1694 v 1.4399 c 0 0.36189997 -0.0076999664 0.61600006 -0.030799866 0.7622999 c -0.07700014 0.4697001 -0.42350006 0.7084 -1.0318 0.7084 c -0.48510003 0 -0.847 -0.23099995 -1.0857 -0.69299984 v 0.69299984 l -1.1319 -0.08469987 v -0.29260015 c 0.27719998 0 0.44660002 -0.0230999 0.5082 -0.06929994 c 0.06160003 -0.046200037 0.08469999 -0.14630008 0.08469999 -0.32340002 v -2.0251 c 0 -0.14629996 -0.030799985 -0.23869997 -0.08469999 -0.26949996 c -0.053900003 -0.030800015 -0.22329998 -0.046200007 -0.5082 -0.046200007 v -0.2926 l 0.88549995 0.0231 l 0.8778001 -0.0231 v 0.2926 c -0.28490007 0 -0.44660008 0.0153999925 -0.5005001 0.046200007 c -0.053900003 0.030799985 -0.08469999 0.1232 -0.08469999 0.26949996 v 1.386 c 0 0.6237 0.39269996 1.1858 0.99329996 1.1858 Z "/>
        </symbol>
        <symbol id="gC1EC7BC47190E272B690099BC6880AAC" overflow="visible">
            <path d="M 0 0m 8.129 5.841 c 0 0.5609999 -0.28599977 0.9899998 -0.84699965 1.2979999 c -0.4510002 0.25300026 -0.99000025 0.37400007 -1.5950003 0.37400007 h -3.1019998 c -0.25300002 0 -0.36300015 -0.011000156 -0.36300015 -0.26399994 c 0 -0.07700014 0.032999992 -0.13199997 0.099000216 -0.14300013 c 0.109999895 -0.011000156 0.19799995 -0.021999836 0.25299978 -0.021999836 c 0.33000016 -0.011000156 0.5170002 -0.032999992 0.572 -0.04400015 c 0.055000067 -0.011000156 0.08800006 -0.04400015 0.08800006 -0.09899998 c 0 -0.021999836 -0.010999918 -0.08799982 -0.04399991 -0.19799995 l -1.452 -5.841 c -0.055000067 -0.24200004 -0.16500008 -0.39600003 -0.33000004 -0.451 c -0.07700002 -0.022000015 -0.27499998 -0.033000022 -0.616 -0.033000022 c -0.24199998 0 -0.341 -0.010999978 -0.341 -0.253 c 0 -0.12099999 0.066000015 -0.176 0.19799998 -0.16499999 l 1.3640001 0.033 l 1.3859999 -0.033 c 0.17600012 -0.011 0.26399994 0.088 0.26399994 0.253 c 0 0.110000014 -0.12099981 0.16499999 -0.352 0.16499999 c -0.43999982 0 -0.65999985 0.055000007 -0.65999985 0.15400004 c 0 0 0.010999918 0.021999955 0.032999992 0.176 l 0.704 2.849 h 1.2649999 c 0.7590003 0 1.144 -0.319 1.144 -0.94599986 c 0 -0.09899998 -0.05499983 -0.34100008 -0.1539998 -0.737 c -0.12100029 -0.462 -0.17600012 -0.77 -0.17600012 -0.93500006 c 0 -0.83599997 0.64900017 -1.221 1.4850001 -1.221 c 0.3079996 0 0.605 0.143 0.90199995 0.41799998 c 0.29699993 0.275 0.4510002 0.572 0.4510002 0.88 c 0 0.110000014 -0.055000305 0.16499996 -0.1760006 0.16499996 c -0.076999664 0 -0.14299965 -0.054999948 -0.17599964 -0.176 c -0.12100029 -0.34099996 -0.2750001 -0.594 -0.4510002 -0.737 c -0.17600012 -0.143 -0.34100008 -0.22 -0.50600004 -0.22 c -0.25299978 0 -0.38499975 0.20899999 -0.38499975 0.616 c 0 0.264 0.032999992 0.671 0.11000013 1.232 c 0.032999992 0.23100007 0.043999672 0.39600003 0.043999672 0.5170001 c 0 0.58299994 -0.3080001 1.0119998 -0.9239998 1.276 c 1.0339999 0.25299978 2.2879996 0.9899998 2.2879996 2.112 Z m -1.4299998 0.93499994 c 0.22000027 -0.14300013 0.32999992 -0.38500023 0.32999992 -0.72599983 c 0 -0.22000027 -0.043999672 -0.47300005 -0.14299965 -0.77000046 c -0.2970004 -0.90199995 -1.0450001 -1.3529997 -2.244 -1.3529997 h -1.1660001 l 0.6930001 2.783 c 0.05499983 0.23099995 0.14299965 0.35199976 0.26399994 0.36299992 c 0.05499983 0.011000156 0.2750001 0.011000156 0.65999985 0.011000156 c 0.71500015 0 1.1329999 -0.022000313 1.606 -0.3080001 Z "/>
        </symbol>
        <symbol id="gE9BC32A68CDF4ADEE1DE1420C19D1A5B" overflow="visible">
            <path d="M 0 0m 1.628 2.398 c 0 1.408 0.61599994 2.838 1.309 3.6299999 c 0.5609999 0.64900017 1.529 1.2979999 2.6179998 1.2979999 c 1.144 0 1.7049999 -0.86899996 1.7049999 -2.0569997 c 0 -0.09899998 -0.032999992 -0.4510002 -0.032999992 -0.5500002 c 0 -0.09899998 0.065999985 -0.1539998 0.20900011 -0.1539998 c 0.055000305 0 0.09899998 0.011000156 0.13199997 0.021999836 c 0.055000305 0.07700014 0.0880003 0.15400028 0.11000013 0.23099995 l 0.6819997 2.783 c 0 0.09899998 -0.05499935 0.15400028 -0.16499996 0.15400028 c -0.043999672 0 -0.10999966 -0.04400015 -0.19799995 -0.14300013 l -0.7149997 -0.803 c -0.4289999 0.62699986 -1.0339999 0.9460001 -1.815 0.9460001 c -0.605 0 -1.1989999 -0.14300013 -1.8040001 -0.41800022 c -1.221 -0.572 -2.112 -1.474 -2.684 -2.7059999 c -0.28599995 -0.605 -0.42899996 -1.221 -0.42899996 -1.848 c 0 -0.88 0.27499998 -1.595 0.836 -2.167 c 0.561 -0.572 1.2759999 -0.858 2.1560001 -0.858 c 0.8689997 0 1.661 0.319 2.3759997 0.946 c 0.2970004 0.25300002 0.5500002 0.561 0.7590003 0.90199995 c 0.29699993 0.49500012 0.45099974 0.83599997 0.45099974 1.0450001 c 0 0.09899998 -0.05499983 0.15400004 -0.17599964 0.15400004 c -0.09899998 0 -0.15400028 -0.04400015 -0.17600012 -0.14300013 c -0.23099995 -0.7149999 -0.59399986 -1.287 -1.0890002 -1.694 c -0.62699986 -0.51699996 -1.2869997 -0.781 -1.9689999 -0.781 c -1.3199999 0 -2.09 0.8909999 -2.09 2.211 Z "/>
        </symbol>
        <symbol id="gF8987D3470093431E1D6105613734851" overflow="visible">
            <path d="M 0 0m 1.9173 -0.0847 c 0.47740006 0 0.8778 0.1694 1.2089 0.5082 c 0.3311 0.3388 0.50049996 0.7469 0.50049996 1.2242999 c 0 0.48510003 -0.16170001 0.9086001 -0.48510003 1.2628 c -0.32340002 0.35420012 -0.7314999 0.53900003 -1.2166 0.53900003 c -0.4850999 0 -0.88549995 -0.18479991 -1.2166 -0.53900003 c -0.33110002 -0.3541999 -0.4928 -0.77769995 -0.4928 -1.2628 c 0 -0.47739995 0.1617 -0.88549995 0.4928 -1.2242999 c 0.3311 -0.3388 0.7392 -0.5082 1.2089 -0.5082 Z m 0.0076999664 0.2464 c -0.36959994 0 -0.6467999 0.1617 -0.8392999 0.4928 c -0.12320006 0.21560001 -0.18480003 0.5698 -0.18480003 1.0548999 c 0 0.4697001 0.06159997 0.80850005 0.17709994 1.0241001 c 0.18480003 0.3311 0.462 0.4928 0.83930004 0.4928 c 0.3619001 0 0.6391001 -0.16170001 0.83159995 -0.47740006 c 0.13090014 -0.21560001 0.19250011 -0.56209993 0.19250011 -1.0395 c 0 -0.8931999 -0.26180005 -1.5476999 -1.0164001 -1.5476999 Z "/>
        </symbol>
        <symbol id="g7A1C9F312B2F3CB891F09042468EF0A3" overflow="visible">
            <path d="M 0 0m 2.0559 0.13859999 c -0.53130007 0 -0.6314001 0.22330001 -0.6314001 0.7238 v 2.541 l -1.1781 -0.08469987 v -0.29260015 c 0.3003 0 0.4774 -0.030799866 0.5236 -0.08469987 c 0.046200037 -0.053900003 0.069299996 -0.24640012 0.069299996 -0.5852001 v -1.1319 c 0 -0.3003 0.023100019 -0.5313 0.07700002 -0.7084 c 0.11550003 -0.4004 0.539 -0.6006 1.1011 -0.6006 c 0.41579986 0 0.7314999 0.1925 0.9470999 0.5852 v -0.5852 l 1.1550002 0.0847 v 0.2926 c -0.27720022 0 -0.43890023 0.0153999925 -0.5005002 0.0616 c -0.06159997 0.046199977 -0.092400074 0.15399998 -0.092400074 0.3311 v 2.7181 l -1.1703999 -0.08469987 v -0.29260015 c 0.26950002 0 0.43120003 -0.0230999 0.4928 -0.06929994 c 0.06159997 -0.046200037 0.092400074 -0.14630008 0.092400074 -0.32340002 v -1.3475 c 0 -0.6083 -0.32340002 -1.1473 -0.88549995 -1.1473 Z "/>
        </symbol>
        <symbol id="gA291CEF2EB940EBAFE60683AA0004CEE" overflow="visible">
            <path d="M 0 0m 2.5564 0.9702 v 0.46199995 h -0.24640012 v -0.44659996 c 0 -0.385 -0.13859987 -0.8162 -0.47739995 -0.8162 c -0.31570005 0 -0.46969998 0.2618 -0.46969998 0.78540003 v 2.0867 h 1.0702999 v 0.29259992 h -1.0702999 v 1.4013999 h -0.2464 c -0.0077000856 -0.25409985 -0.030799985 -0.47739983 -0.08469999 -0.6775999 c -0.13090003 -0.50819993 -0.43120003 -0.77 -0.8855 -0.7930999 v -0.22329998 h 0.63909996 v -2.0713 c 0 -0.4543 0.13860005 -0.7469 0.40810007 -0.8932 c 0.20789993 -0.1078 0.40039992 -0.16170001 0.5928999 -0.16170001 c 0.50820005 0 0.7700001 0.5082 0.7700001 1.0549 Z "/>
        </symbol>
    </defs>
</svg>
